<svg width="42" height="40" viewBox="0 0 42 44" fill="none" xmlns="http://www.w3.org/2000/svg">
<g clip-path="url(#clip0_8195_1644)">
<path d="M9.1875 24.8762C9.1875 21.398 12.0039 18.5785 15.4781 18.5785C18.9523 18.5785 21.7688 21.398 21.7688 24.8762V37.4717C21.7688 40.9499 18.9523 43.7695 15.4781 43.7695C12.0039 43.7695 9.1875 40.9499 9.1875 37.4717V24.8762Z" fill="#00AFF1"/>
<path d="M29.1875 24.8762C29.1875 21.398 32.0039 18.5785 35.4781 18.5785C38.9523 18.5785 41.7688 21.398 41.7688 24.8762V37.4717C41.7688 40.9499 38.9523 43.7695 35.4781 43.7695C32.0039 43.7695 29.1875 40.9499 29.1875 37.4717V24.8762Z" fill="#00AFF1"/>
<path d="M29.1875 6.52839C29.1875 3.05022 32.0039 0.230604 35.4781 0.230604C38.9523 0.230604 41.7688 3.05022 41.7688 6.52839C41.7688 10.0066 38.9523 12.8262 35.4781 12.8262C32.0039 12.8262 29.1875 10.0066 29.1875 6.52839Z" fill="#00AFF1"/>
<path d="M19.8871 11.2173C22.3428 8.75881 26.3243 8.75881 28.78 11.2173C31.2357 13.6758 31.2357 17.6618 28.78 20.1203L19.8871 29.0233C17.4314 31.4818 13.4499 31.4818 10.9941 29.0233C8.53842 26.5648 8.53842 22.5788 10.9941 20.1203L19.8871 11.2173Z" fill="#00AFF1" fill-opacity="0.5"/>
<path d="M10.9652 11.2173C8.50946 8.75881 4.52799 8.75881 2.07228 11.2173C-0.383469 13.6758 -0.383469 17.6618 2.07228 20.1203L10.9652 29.0233C13.4209 31.4818 17.4024 31.4818 19.8581 29.0233C22.3138 26.5648 22.3138 22.5788 19.8581 20.1203L10.9652 11.2173Z" fill="#00AFF1" fill-opacity="0.5"/>
</g>
<defs>
<clipPath id="clip0_8195_1644">
<rect width="42" height="44" fill="white"/>
</clipPath>
</defs>
</svg>
